<?xml version="1.0" standalone="no"?>
<!DOCTYPE svg PUBLIC "-//W3C//DTD SVG 20010904//EN"
 "http://www.w3.org/TR/2001/REC-SVG-20010904/DTD/svg10.dtd">
<svg version="1.0" xmlns="http://www.w3.org/2000/svg"
 width="512.000000pt" height="512.000000pt" viewBox="0 0 512.000000 512.000000"
 preserveAspectRatio="xMidYMid meet">

<g transform="translate(0.000000,512.000000) scale(0.100000,-0.100000)"
fill="#000000" stroke="none">
<path d="M2401 5105 c-182 -51 -227 -196 -113 -364 36 -52 41 -56 157 -102
l120 -48 63 65 c124 132 167 276 107 366 -53 80 -208 118 -334 83z m153 -166
c23 -27 26 -40 26 -102 0 -81 -24 -148 -59 -167 -35 -18 -41 -2 -11 28 47 48
63 141 36 207 -15 34 -26 40 -71 35 -47 -5 -74 -58 -80 -157 -5 -75 -25 -84
-25 -11 0 76 17 127 55 165 45 45 92 46 129 2z"/>
<path d="M2108 4653 c-18 -45 -22 -141 -8 -217 24 -140 113 -384 211 -578 l40
-79 -38 -15 c-21 -9 -58 -24 -82 -35 -24 -11 -45 -18 -46 -17 -1 2 -12 32 -24
68 -63 176 -195 381 -307 476 -110 92 -232 154 -348 176 -47 9 -66 17 -66 28
0 28 -47 115 -79 147 -97 97 -261 76 -381 -47 -62 -64 -93 -129 -98 -207 -5
-71 8 -116 48 -172 70 -96 204 -114 376 -50 l51 19 47 123 c25 67 46 128 46
134 0 26 130 -12 244 -70 142 -73 293 -239 384 -422 25 -50 82 -197 82 -210 0
-3 -22 -14 -50 -26 -27 -12 -50 -26 -50 -31 0 -19 155 -164 194 -182 85 -40
150 4 186 124 17 57 43 230 36 238 -2 1 -24 -7 -50 -18 -26 -11 -50 -20 -52
-20 -7 0 -113 231 -159 347 -50 124 -89 267 -100 358 -6 54 -1 92 20 163 10
32 -13 28 -27 -5z m-833 -167 c51 -24 124 -90 112 -102 -3 -3 -27 12 -54 34
-56 48 -90 62 -143 62 -96 0 -136 -118 -78 -232 34 -70 98 -84 186 -43 39 18
52 21 52 10 0 -27 -91 -59 -162 -56 -63 3 -128 96 -128 186 0 138 93 199 215
141z"/>
<path d="M2375 4418 c-36 -13 -72 -44 -90 -79 -34 -65 -24 -201 25 -331 29
-78 51 -85 215 -65 112 14 121 17 147 46 87 97 48 316 -71 394 -67 44 -159 58
-226 35z m189 -220 c12 -100 -22 -213 -62 -206 -9 2 -27 23 -38 48 -26 55 -55
178 -44 185 12 7 16 -1 35 -80 19 -76 40 -125 55 -125 16 0 30 72 30 153 0 88
15 103 24 25z"/>
<path d="M1585 4101 c-42 -26 -60 -48 -89 -112 -59 -128 -51 -340 16 -419 53
-63 105 -64 225 -6 155 76 188 118 181 233 -4 57 -11 79 -43 133 -96 161 -204
225 -290 171z m121 -204 c40 -86 52 -140 34 -162 -10 -13 -15 -13 -40 0 -30
16 -120 122 -120 143 0 20 17 14 35 -15 25 -37 96 -113 106 -113 14 0 0 48
-37 128 -30 65 -35 92 -18 92 3 0 21 -33 40 -73z"/>
<path d="M3215 3734 c-24 -107 -56 -166 -138 -251 -90 -94 -170 -144 -372
-233 -55 -25 -47 -38 12 -20 64 21 231 110 293 157 77 58 139 127 177 200 37
69 59 151 44 166 -7 7 -12 0 -16 -19z"/>
<path d="M2556 3612 c-18 -305 -98 -404 -265 -327 -92 43 -206 145 -272 243
-11 16 -19 20 -24 13 -23 -39 188 -240 302 -287 48 -21 121 -21 160 -1 38 20
79 86 99 159 18 65 31 302 17 311 -6 4 -13 -37 -17 -111z"/>
<path d="M3192 3423 c-16 -60 -60 -232 -97 -383 -38 -151 -69 -276 -70 -278
-1 -1 -31 -7 -65 -13 -78 -12 -120 -33 -120 -59 0 -25 29 -40 75 -40 l36 0
-61 -57 c-67 -62 -67 -62 -152 -94 -34 -12 -58 -26 -58 -35 0 -18 6 -18 76 7
32 11 78 22 101 24 23 3 64 13 91 23 l48 19 -33 -50 c-39 -58 -42 -77 -10 -77
24 0 73 30 159 97 l54 42 64 -26 c223 -91 541 24 603 217 20 61 21 109 6 182
-35 163 -174 353 -350 478 -78 55 -222 130 -250 130 -13 0 -24 -25 -47 -107z
m448 -283 c13 -31 10 -105 -4 -105 -6 0 -10 20 -11 45 0 30 -8 56 -23 77 -12
17 -22 37 -22 44 0 19 46 -28 60 -61z m-113 -65 c23 -40 29 -79 17 -109 -12
-32 -24 -15 -24 33 0 38 -6 56 -25 79 -29 35 -31 45 -8 40 10 -2 28 -21 40
-43z m232 -108 c12 -40 12 -51 0 -83 -16 -42 -48 -64 -34 -23 11 32 11 97 1
133 -7 22 -6 28 5 24 7 -2 20 -25 28 -51z m-129 -57 c0 -48 -22 -95 -51 -111
-30 -15 -36 -3 -12 24 30 32 43 62 43 96 0 17 5 31 10 31 6 0 10 -18 10 -40z
m33 -183 c-3 -46 -27 -93 -54 -108 -33 -17 -35 -2 -5 30 20 21 30 43 33 76 7
54 29 56 26 2z m-153 1 c0 -21 -37 -76 -62 -92 -31 -20 -70 -24 -75 -8 -3 6 3
12 12 12 30 0 74 33 90 67 16 33 35 44 35 21z m-405 -78 c55 -92 60 -78 -53
-150 -35 -22 -60 -34 -55 -28 4 7 25 38 46 68 46 67 37 73 -55 34 -115 -48
-118 -49 -73 -7 23 21 60 53 83 72 23 19 39 38 35 44 -3 6 -33 7 -74 3 -41 -4
-69 -2 -69 3 0 13 85 39 131 40 34 1 37 -2 84 -79z"/>
<path d="M1280 3424 c-16 -84 -8 -187 20 -253 26 -59 101 -134 162 -160 154
-65 397 -59 694 19 168 43 284 81 284 92 0 13 -15 10 -170 -36 -178 -53 -355
-86 -489 -93 -293 -15 -454 78 -481 276 -7 54 1 167 16 204 4 11 1 17 -9 17
-10 0 -18 -20 -27 -66z"/>
<path d="M1000 3289 c-326 -173 -546 -451 -636 -806 -29 -116 -46 -320 -36
-438 l7 -90 120 -62 c425 -221 840 -330 1145 -302 234 22 400 106 578 293 132
140 255 346 342 572 42 111 42 112 84 124 56 18 171 78 191 100 26 28 11 60
-28 60 l-31 0 29 30 c16 16 56 39 93 52 59 21 83 40 68 55 -3 3 -38 -5 -78
-19 -40 -14 -96 -30 -125 -35 l-52 -9 25 29 c27 32 32 75 9 83 -26 10 -100
-34 -190 -113 l-87 -76 -166 6 c-339 12 -622 82 -833 207 -106 62 -224 184
-272 281 -20 41 -37 83 -37 92 0 26 -17 21 -120 -34z m1622 -469 c-90 -85 -83
-99 27 -55 35 15 68 24 74 22 6 -2 -17 -23 -51 -47 -58 -40 -79 -70 -49 -70 6
0 36 9 66 20 69 27 99 23 51 -7 -52 -31 -181 -96 -184 -92 -2 2 -21 38 -42 79
l-39 76 29 24 c52 43 170 120 175 114 3 -3 -22 -32 -57 -64z m-2106 -341 c0
-8 2 -23 2 -33 1 -11 20 -36 43 -57 23 -21 36 -40 30 -44 -6 -3 -29 11 -51 32
-32 30 -43 47 -47 82 -5 35 -3 43 8 39 8 -3 14 -11 15 -19z m-1 -248 c6 -30
34 -60 74 -81 16 -8 20 -15 13 -22 -15 -15 -79 26 -97 62 -17 32 -20 85 -6 75
5 -3 12 -18 16 -34z m236 -23 c23 -17 43 -23 80 -21 34 1 49 -3 46 -10 -2 -7
-26 -12 -60 -12 -45 0 -61 5 -81 24 -24 23 -33 41 -21 41 3 0 20 -10 36 -22z
m376 -156 c24 2 43 -1 43 -7 0 -5 -24 -11 -53 -13 -42 -2 -59 2 -80 18 -43 34
-34 54 10 24 29 -19 48 -25 80 -22z m-630 -2 c19 -14 41 -20 79 -20 30 0 54
-4 54 -9 0 -14 -55 -24 -90 -16 -31 7 -80 41 -80 56 0 14 9 11 37 -11z m290 0
c19 -14 41 -20 82 -20 51 -1 54 -2 37 -15 -38 -29 -134 -7 -157 36 -13 26 5
25 38 -1z m409 -155 c36 0 54 -4 54 -12 0 -22 -100 -16 -137 7 -18 11 -33 24
-33 28 0 21 15 20 38 0 18 -18 35 -23 78 -23z m-456 7 c0 -15 50 -32 95 -32
25 0 45 -4 45 -9 0 -14 -55 -24 -90 -16 -51 11 -105 65 -65 65 8 0 15 -4 15
-8z m277 -92 c18 -14 41 -20 74 -20 56 0 65 -15 16 -24 -38 -7 -92 7 -118 30
-39 35 -14 47 28 14z m280 -20 c19 -14 41 -20 79 -20 56 0 73 -15 28 -26 -54
-14 -144 18 -144 51 0 20 7 19 37 -5z"/>
<path d="M2668 2997 c-132 -64 -177 -97 -133 -97 27 0 315 143 315 157 0 23
-32 13 -182 -60z"/>
<path d="M3950 2375 c0 -2 11 -21 25 -41 17 -25 25 -50 25 -80 0 -46 14 -59
25 -23 11 33 -3 86 -31 119 -23 26 -44 39 -44 25z"/>
<path d="M3093 2342 c-132 -72 -303 -177 -307 -188 -12 -32 32 -14 179 73 88
52 168 103 179 113 31 30 1 32 -51 2z"/>
<path d="M3880 2200 c0 -5 12 -26 26 -47 20 -30 25 -46 21 -76 -4 -26 -2 -37
6 -34 22 7 14 100 -11 135 -23 31 -42 42 -42 22z"/>
<path d="M4030 2135 c0 -4 10 -21 22 -38 15 -21 23 -47 23 -77 2 -59 19 -59
23 0 2 35 -3 54 -20 80 -21 31 -48 51 -48 35z"/>
<path d="M3930 1960 c0 -6 10 -25 23 -41 15 -22 22 -44 21 -75 -1 -28 3 -43
10 -41 21 7 12 100 -12 135 -23 32 -42 42 -42 22z"/>
<path d="M4058 1904 c-4 -3 5 -22 18 -41 16 -24 24 -50 24 -79 0 -24 4 -44 10
-44 17 0 23 50 11 89 -11 37 -52 86 -63 75z"/>
<path d="M422 1798 c-19 -19 -14 -99 8 -136 28 -45 45 -31 20 16 -22 41 -25
74 -10 102 12 22 -1 35 -18 18z"/>
<path d="M3900 1765 c0 -2 12 -21 26 -42 18 -27 24 -48 23 -75 -4 -47 7 -59
21 -23 13 34 -1 89 -31 121 -20 22 -39 31 -39 19z"/>
<path d="M536 1634 c-18 -48 10 -154 41 -154 8 0 13 3 11 8 -31 59 -39 90 -34
124 6 38 -6 53 -18 22z"/>
<path d="M4080 1640 c0 -5 12 -26 26 -47 20 -30 25 -46 21 -75 -4 -28 -1 -38
9 -38 13 0 19 28 14 75 -3 41 -70 121 -70 85z"/>
<path d="M3840 1581 c0 -5 12 -27 26 -48 20 -30 25 -46 21 -76 -4 -26 -2 -37
6 -34 7 2 13 24 15 48 2 33 -3 53 -20 79 -23 34 -48 50 -48 31z"/>
<path d="M365 1530 c-23 -38 9 -160 42 -160 17 0 17 3 -8 45 -17 28 -20 46
-15 81 5 41 -4 58 -19 34z"/>
<path d="M4005 1453 c16 -42 17 -83 1 -114 -19 -39 -19 -39 -3 -39 31 0 50
107 27 151 -13 24 -35 26 -25 2z"/>
<path d="M480 1434 c-6 -14 -10 -34 -10 -45 0 -26 25 -85 40 -94 20 -12 22 2
5 36 -12 22 -16 47 -13 81 5 52 -6 64 -22 22z"/>
<path d="M4256 1408 c-3 -13 -6 -40 -6 -60 0 -20 -9 -84 -20 -141 -73 -375
-276 -639 -577 -746 -141 -50 -137 -45 -48 -74 264 -87 522 -105 780 -52 114
23 294 85 315 107 23 25 148 274 156 311 4 19 2 27 -8 27 -20 0 -93 -49 -168
-114 -36 -31 -68 -56 -71 -56 -3 0 -9 26 -13 58 -25 213 -108 474 -194 612
-33 53 -119 150 -133 150 -4 0 -9 -10 -13 -22z m92 -271 c24 -26 35 -80 17
-85 -5 -2 -13 12 -17 30 -3 18 -18 43 -32 55 -30 26 -36 49 -8 34 9 -5 28 -20
40 -34z m-55 -97 c27 -21 53 -83 42 -100 -9 -15 -25 -2 -25 20 0 11 -13 35
-30 53 -44 50 -36 66 13 27z m-43 -123 c28 -22 50 -61 50 -89 0 -40 -17 -35
-24 7 -5 22 -18 43 -36 57 -17 12 -30 25 -30 30 0 12 23 9 40 -5z m219 -52
c20 -23 31 -46 31 -65 0 -39 -16 -38 -24 1 -3 17 -19 43 -36 59 -33 31 -37 40
-16 40 8 0 28 -16 45 -35z m-19 -148 c28 -22 50 -61 50 -89 0 -38 -16 -36 -24
3 -3 17 -19 44 -36 60 -16 17 -30 32 -30 35 0 8 25 3 40 -9z"/>
<path d="M4120 1304 c0 -46 -5 -68 -20 -87 -23 -29 -10 -46 15 -21 36 36 47
115 20 150 -13 17 -14 14 -15 -42z"/>
<path d="M356 1284 c-18 -48 12 -154 45 -154 6 0 9 3 7 8 -35 66 -40 89 -31
125 8 28 7 37 -2 37 -7 0 -16 -7 -19 -16z"/>
<path d="M3967 1180 c5 -43 2 -56 -16 -80 -25 -35 -26 -40 -5 -40 26 0 57 85
47 128 -14 58 -33 53 -26 -8z"/>
<path d="M496 1204 c-13 -33 -5 -100 14 -132 29 -47 45 -30 19 20 -16 32 -19
51 -14 84 6 43 -6 61 -19 28z"/>
<path d="M1200 1155 c-231 -52 -505 -208 -690 -394 -137 -138 -175 -207 -175
-322 0 -63 4 -83 21 -106 49 -66 279 -194 452 -252 332 -110 693 -103 1012 20
80 30 80 31 121 101 52 89 108 208 115 248 5 22 3 30 -8 30 -21 0 -97 -52
-169 -116 -65 -58 -78 -59 -79 -4 0 14 -11 77 -24 140 -70 335 -194 571 -337
646 -44 22 -161 27 -239 9z m86 -95 c31 -20 52 -55 40 -67 -3 -3 -15 6 -26 20
-12 15 -39 32 -61 38 -21 7 -39 16 -39 21 0 15 53 8 86 -12z m166 -47 c43 -45
58 -103 27 -103 -5 0 -9 12 -9 26 0 17 -12 38 -34 59 -19 18 -32 35 -29 39 11
10 18 7 45 -21z m-252 -68 c32 -16 66 -70 51 -80 -5 -3 -19 8 -31 24 -11 17
-36 36 -55 42 -19 7 -35 17 -35 21 0 13 39 9 70 -7z m218 -48 c24 -25 45 -84
36 -99 -8 -13 -24 1 -24 23 0 10 -16 37 -36 59 -31 34 -33 40 -17 40 11 0 29
-11 41 -23z m-46 -119 c27 -23 48 -62 48 -90 0 -38 -16 -36 -24 3 -3 17 -19
44 -36 60 -16 17 -30 32 -30 35 0 9 27 3 42 -8z m232 -70 c18 -29 21 -64 6
-73 -5 -3 -14 12 -20 34 -6 22 -22 49 -36 60 -33 26 -22 48 11 24 13 -10 30
-30 39 -45z m-3 -165 c20 -30 25 -68 9 -78 -5 -3 -14 12 -20 34 -6 22 -22 49
-36 60 -31 24 -23 49 8 27 12 -8 29 -28 39 -43z"/>
<path d="M4068 1069 c4 -41 1 -56 -17 -79 -25 -35 -26 -40 -5 -40 25 0 57 84
49 131 -10 60 -33 51 -27 -12z"/>
<path d="M396 1045 c-18 -48 11 -155 42 -155 7 0 12 3 10 8 -37 71 -41 91 -27
141 6 20 -17 25 -25 6z"/>
</g>
</svg>
